<svg width="44" height="44" viewBox="0 0 44 44" fill="none" xmlns="http://www.w3.org/2000/svg">
<circle cx="22" cy="22" r="22" fill="white"/>
<path d="M16.4955 29V26.7841L21.6731 21.9901C22.1134 21.5639 22.4827 21.1804 22.781 20.8395C23.0841 20.4986 23.3137 20.1648 23.47 19.8381C23.6262 19.5066 23.7043 19.1491 23.7043 18.7656C23.7043 18.3395 23.6073 17.9725 23.4131 17.6648C23.219 17.3523 22.9539 17.1132 22.6177 16.9474C22.2815 16.777 21.9004 16.6918 21.4742 16.6918C21.0292 16.6918 20.6409 16.7817 20.3095 16.9616C19.978 17.1416 19.7223 17.3996 19.5424 17.7358C19.3625 18.072 19.2725 18.4721 19.2725 18.9361H16.3535C16.3535 17.9844 16.5689 17.1581 16.9998 16.4574C17.4307 15.7566 18.0344 15.2145 18.8109 14.831C19.5874 14.4474 20.4823 14.2557 21.4955 14.2557C22.5372 14.2557 23.4439 14.4403 24.2157 14.8097C24.9922 15.1742 25.5959 15.6809 26.0268 16.3295C26.4577 16.9782 26.6731 17.7216 26.6731 18.5597C26.6731 19.1089 26.5642 19.651 26.3464 20.1861C26.1333 20.7211 25.7522 21.3153 25.2029 21.9688C24.6537 22.6174 23.8795 23.3963 22.8805 24.3054L20.7569 26.3864V26.4858H26.8649V29H16.4955Z" fill="url(#paint0_radial_327_892)"/>
<defs>
<radialGradient id="paint0_radial_327_892" cx="0" cy="0" r="1" gradientUnits="userSpaceOnUse" gradientTransform="translate(22.6422 18.4516) rotate(-23.3631) scale(8.94799 718.724)">
<stop stop-color="#FF3D3D"/>
<stop offset="1" stop-color="#B91F1F"/>
</radialGradient>
</defs>
</svg>
