<svg width="44" height="44" viewBox="0 0 44 44" fill="none" xmlns="http://www.w3.org/2000/svg">
<circle cx="22" cy="22" r="22" fill="white"/>
<path d="M22.579 29.1989C21.5184 29.1989 20.5738 29.0166 19.7452 28.652C18.9213 28.2827 18.2703 27.776 17.7921 27.1321C17.3186 26.4834 17.0747 25.7353 17.0605 24.8878H20.1571C20.176 25.2429 20.2921 25.5554 20.5051 25.8253C20.7229 26.0904 21.0118 26.2964 21.3716 26.4432C21.7314 26.59 22.1363 26.6634 22.5861 26.6634C23.0548 26.6634 23.4691 26.5805 23.829 26.4148C24.1888 26.2491 24.4706 26.0194 24.6742 25.7259C24.8778 25.4323 24.9796 25.0937 24.9796 24.7102C24.9796 24.322 24.8707 23.9787 24.6528 23.6804C24.4398 23.3774 24.132 23.1406 23.7296 22.9702C23.3318 22.7997 22.8583 22.7145 22.3091 22.7145H20.9526V20.456H22.3091C22.7731 20.456 23.1827 20.3755 23.5378 20.2145C23.8976 20.0535 24.177 19.831 24.3759 19.5469C24.5747 19.258 24.6742 18.9219 24.6742 18.5384C24.6742 18.1738 24.5866 17.8542 24.4114 17.5795C24.2409 17.3002 23.9994 17.0824 23.6869 16.9261C23.3792 16.7699 23.0193 16.6918 22.6074 16.6918C22.1907 16.6918 21.8096 16.7675 21.4639 16.919C21.1183 17.0658 20.8413 17.2765 20.633 17.5511C20.4246 17.8258 20.3134 18.1477 20.2992 18.517H17.3517C17.3659 17.679 17.605 16.9403 18.069 16.3011C18.5331 15.6619 19.1581 15.1624 19.944 14.8026C20.7348 14.438 21.6273 14.2557 22.6216 14.2557C23.6254 14.2557 24.5037 14.438 25.2565 14.8026C26.0094 15.1671 26.5941 15.6596 27.0108 16.2798C27.4322 16.8954 27.6405 17.5866 27.6358 18.3537C27.6405 19.1681 27.3872 19.8475 26.8759 20.392C26.3692 20.9366 25.7087 21.2822 24.8943 21.429V21.5426C25.9644 21.6799 26.7788 22.0516 27.3375 22.6577C27.901 23.259 28.1803 24.0118 28.1756 24.9162C28.1803 25.7448 27.9412 26.4811 27.4582 27.125C26.98 27.7689 26.3195 28.2756 25.4767 28.6449C24.6339 29.0142 23.668 29.1989 22.579 29.1989Z" fill="url(#paint0_radial_327_897)"/>
<defs>
<radialGradient id="paint0_radial_327_897" cx="0" cy="0" r="1" gradientUnits="userSpaceOnUse" gradientTransform="translate(23.6422 18.4516) rotate(-23.3631) scale(8.94799 718.724)">
<stop stop-color="#FF3D3D"/>
<stop offset="1" stop-color="#B91F1F"/>
</radialGradient>
</defs>
</svg>
